<svg width="25" height="24" viewBox="0 0 25 24" fill="none" xmlns="http://www.w3.org/2000/svg">
<path d="M23.2143 0.5625H1.78013C0.797991 0.5625 0 1.37165 0 2.36496V23.76C0 24.7533 0.797991 25.5625 1.78013 25.5625H23.2143C24.1964 25.5625 25 24.7533 25 23.76V2.36496C25 1.37165 24.1964 0.5625 23.2143 0.5625ZM7.5558 21.9911H3.85045V10.0603H7.56138V21.9911H7.5558ZM5.70312 8.4308C4.51451 8.4308 3.55469 7.4654 3.55469 6.28237C3.55469 5.09933 4.51451 4.13393 5.70312 4.13393C6.88616 4.13393 7.85156 5.09933 7.85156 6.28237C7.85156 7.47098 6.89174 8.4308 5.70312 8.4308V8.4308ZM21.4453 21.9911H17.74V16.1875C17.74 14.8036 17.7121 13.0234 15.8147 13.0234C13.8839 13.0234 13.5882 14.5301 13.5882 16.0871V21.9911H9.88281V10.0603H13.4375V11.6897H13.4877C13.9844 10.7522 15.1953 9.76451 16.9978 9.76451C20.7478 9.76451 21.4453 12.2366 21.4453 15.4509V21.9911V21.9911Z" fill="white"/>
</svg>
